<?xml version="1.0" encoding="UTF-8"?>
<svg xmlns="http://www.w3.org/2000/svg" version="1.1" viewBox="0 0 1366 768">
  <!-- Generator: Adobe Illustrator 29.1.0, SVG Export Plug-In . SVG Version: 2.1.0 Build 142)  -->
  <defs>
    <style>
      .st0 {
        fill: #3a3e56;
      }

      .st0, .st1 {
        display: none;
      }

      .st2 {
        fill: #77c285;
      }
    </style>
  </defs>
  <g id="Layer_1" class="st1">
    <rect class="st0" x="279" y="10" width="891" height="733"/>
  </g>
  <g id="Layer_2">
    <path class="st2" d="M596.28,661h21.87c10.22,0,19.79-5.06,25.53-13.52l325.21-479.01c9.29-13.68,6.14-32.24-7.13-42.1l-55.52-41.25c-14.05-10.44-33.96-7.11-43.86,7.33l-264.17,384.24c-2.97,4.32-9.14,4.9-12.86,1.2l-115.27-114.61c-11.98-11.82-31.22-11.85-43.25-.08l-49.04,47.99c-12.27,12.01-12.38,31.73-.24,43.87l196.91,196.91c5.79,5.79,13.63,9.04,21.82,9.04Z"/>
  </g>
</svg>