<?xml version="1.0" encoding="UTF-8"?>
<svg id="Layer_1" xmlns="http://www.w3.org/2000/svg" version="1.1" viewBox="0 0 1366 768">
  <!-- Generator: Adobe Illustrator 29.1.0, SVG Export Plug-In . SVG Version: 2.1.0 Build 142)  -->
  <defs>
    <style>
      .st0 {
        fill: #b2cad8;
      }

      .st1 {
        fill: none;
        stroke: #b2cad8;
        stroke-miterlimit: 10;
        stroke-width: 24px;
      }
    </style>
  </defs>
  <path class="st1" d="M875,526.5v172.29c0,20-16.21,36.21-36.21,36.21h-498.57c-20,0-36.21-16.21-36.21-36.21V255.21c0-20,16.21-36.21,36.21-36.21h172.19"/>
  <path class="st0" d="M1034.79,47c6.73,0,12.21,5.48,12.21,12.21v443.57c0,6.73-5.48,12.21-12.21,12.21h-498.57c-6.73,0-12.21-5.48-12.21-12.21V59.21c0-6.73,5.48-12.21,12.21-12.21h498.57M1034.79,23h-498.57c-20,0-36.21,16.21-36.21,36.21v443.57c0,20,16.21,36.21,36.21,36.21h498.57c20,0,36.21-16.21,36.21-36.21V59.21c0-20-16.21-36.21-36.21-36.21h0Z"/>
</svg>