<?xml version="1.0" encoding="UTF-8"?>
<svg id="Layer_1" xmlns="http://www.w3.org/2000/svg" version="1.1" viewBox="0 0 1366 768">
  <!-- Generator: Adobe Illustrator 29.1.0, SVG Export Plug-In . SVG Version: 2.1.0 Build 142)  -->
  <defs>
    <style>
      .st0 {
        fill: #b2cad8;
      }
    </style>
  </defs>
  <path class="st0" d="M634.82,81.77l14.49,30.96c5.62,12,17.29,20.02,30.47,20.93,24.24,1.66,47.9,7.04,70.34,15.99,4.3,1.72,8.83,2.58,13.46,2.58,8.36,0,16.53-2.91,23.02-8.19l26.52-21.57,55.56,44.37-15.15,30.59c-5.88,11.87-4.87,26,2.64,36.87,13.79,19.97,24.32,41.82,31.32,64.95,3.82,12.63,14.22,22.22,27.15,25.03l33.35,7.25v71.1l-33.35,7.25c-12.93,2.81-23.33,12.4-27.15,25.03-6.99,23.13-17.53,44.99-31.32,64.95-7.51,10.87-8.52,25-2.64,36.87l15.15,30.59-55.56,44.37-26.52-21.57c-6.49-5.28-14.67-8.19-23.02-8.19-4.63,0-9.16.87-13.46,2.58-22.44,8.95-46.11,14.33-70.34,15.99-13.18.9-24.86,8.92-30.47,20.93l-14.49,30.96-69.33-15.77.33-34.29c.13-13.2-6.89-25.45-18.31-31.99-20.99-12.01-39.95-27.13-56.34-44.97-6.87-7.47-16.64-11.75-26.8-11.75-2.87,0-5.74.34-8.53,1.01l-33.25,7.98-30.91-64.04,27-21.12c10.4-8.13,15.6-21.26,13.58-34.27-1.84-11.89-2.78-24.04-2.78-36.12s.93-24.23,2.78-36.12c2.02-13.01-3.19-26.14-13.58-34.27l-27-21.12,30.91-64.04,33.25,7.98c2.79.67,5.66,1.01,8.53,1.01,10.17,0,19.94-4.28,26.8-11.75,16.39-17.83,35.35-32.96,56.34-44.97,11.42-6.53,18.44-18.79,18.31-31.98l-.33-34.29,69.33-15.77M641.31,56c-.92,0-1.85.1-2.78.31l-87.41,19.88c-5.73,1.3-9.78,6.43-9.73,12.31l.42,43.55c.04,4.5-2.33,8.69-6.23,10.92-23.19,13.26-44.13,30.02-62.09,49.56-2.38,2.59-5.71,3.99-9.13,3.99-.97,0-1.96-.11-2.93-.35l-42.26-10.14c-.97-.23-1.95-.35-2.92-.35-4.71,0-9.14,2.67-11.26,7.07l-38.96,80.73c-2.56,5.3-1.08,11.66,3.56,15.28l34.3,26.83c3.55,2.77,5.34,7.24,4.65,11.69-2.01,12.97-3.06,26.26-3.06,39.8s1.05,26.82,3.06,39.8c.69,4.45-1.11,8.91-4.65,11.69l-34.3,26.83c-4.63,3.62-6.11,9.99-3.56,15.28l38.96,80.73c2.12,4.39,6.54,7.07,11.26,7.07.97,0,1.95-.11,2.92-.35l42.26-10.14c.97-.23,1.95-.35,2.93-.35,3.43,0,6.76,1.41,9.13,3.99,17.96,19.54,38.9,36.29,62.09,49.56,3.91,2.23,6.27,6.42,6.23,10.92l-.42,43.55c-.06,5.88,3.99,11.01,9.73,12.31l87.41,19.88c.93.21,1.86.31,2.78.31,4.77,0,9.23-2.74,11.32-7.2l18.41-39.35c1.91-4.09,5.88-6.85,10.38-7.16,27.24-1.87,53.32-7.97,77.59-17.64,1.48-.59,3.03-.88,4.57-.88,2.82,0,5.62.97,7.88,2.81l33.71,27.42c2.3,1.87,5.09,2.8,7.89,2.8s5.52-.91,7.8-2.73l70.04-55.94c4.6-3.67,6.01-10.05,3.4-15.32l-19.26-38.89c-2-4.05-1.68-8.87.88-12.58,14.99-21.71,26.73-45.82,34.54-71.64,1.3-4.31,4.87-7.56,9.28-8.52l42.4-9.22c5.75-1.25,9.85-6.34,9.85-12.22v-89.64c0-5.88-4.1-10.97-9.85-12.22l-42.4-9.22c-4.4-.96-7.97-4.21-9.28-8.52-7.81-25.83-19.55-49.94-34.54-71.64-2.57-3.72-2.89-8.54-.88-12.58l19.26-38.89c2.61-5.27,1.19-11.65-3.4-15.32l-70.04-55.94c-2.28-1.82-5.04-2.73-7.8-2.73s-5.59.93-7.89,2.8l-33.71,27.42c-2.26,1.84-5.06,2.81-7.88,2.81-1.54,0-3.09-.29-4.57-.88-24.27-9.68-50.35-15.77-77.59-17.64-4.5-.31-8.47-3.07-10.38-7.16l-18.41-39.35c-2.09-4.47-6.55-7.2-11.32-7.2h0Z"/>
  <path class="st0" d="M666.78,282.39c46.09,0,83.6,37.5,83.6,83.6s-37.5,83.6-83.6,83.6-83.6-37.5-83.6-83.6,37.5-83.6,83.6-83.6M666.78,258.39c-59.42,0-107.6,48.17-107.6,107.6s48.17,107.6,107.6,107.6,107.6-48.17,107.6-107.6-48.17-107.6-107.6-107.6h0Z"/>
</svg>