<?xml version="1.0" encoding="UTF-8"?>
<svg id="Layer_1" xmlns="http://www.w3.org/2000/svg" version="1.1" viewBox="0 0 1366 768">
  <!-- Generator: Adobe Illustrator 29.1.0, SVG Export Plug-In . SVG Version: 2.1.0 Build 142)  -->
  <defs>
    <style>
      .st0 {
        fill: #b2cad8;
      }
    </style>
  </defs>
  <path class="st0" d="M643.52,67.03l17.29,36.95c5.12,10.95,15.77,18.26,27.79,19.09,26.35,1.81,52.08,7.66,76.48,17.39,3.92,1.56,8.05,2.36,12.27,2.36,7.62,0,15.08-2.65,21-7.47l31.66-25.75,66.05,52.75-18.09,36.52c-5.36,10.83-4.44,23.71,2.41,33.62,14.99,21.71,26.44,45.47,34.05,70.62,3.48,11.51,12.97,20.25,24.76,22.82l39.82,8.66v84.52l-39.82,8.66c-11.79,2.56-21.28,11.31-24.76,22.82-7.6,25.15-19.06,48.91-34.05,70.62-6.85,9.91-7.77,22.8-2.4,33.62l18.09,36.52-66.05,52.75-31.66-25.75c-5.92-4.82-13.38-7.47-21-7.47-4.22,0-8.35.79-12.27,2.36-24.4,9.73-50.13,15.58-76.48,17.39-12.02.83-22.66,8.14-27.78,19.09l-17.29,36.95-82.42-18.75.39-40.92c.12-12.04-6.28-23.21-16.7-29.17-22.82-13.05-43.42-29.5-61.24-48.88-6.26-6.81-15.17-10.71-24.44-10.71-2.62,0-5.24.31-7.78.92l-39.69,9.53-36.74-76.12,32.23-25.2c9.48-7.42,14.23-19.39,12.39-31.25-2-12.93-3.02-26.14-3.02-39.26s1.02-26.33,3.02-39.26c1.84-11.86-2.91-23.83-12.39-31.25l-32.23-25.2,36.74-76.12,39.69,9.53c2.55.61,5.16.92,7.78.92,9.27,0,18.18-3.9,24.44-10.71,17.82-19.38,38.42-35.83,61.24-48.88,10.41-5.96,16.81-17.13,16.7-29.17l-.39-40.92,82.42-18.75M647.31,46c-.98,0-1.97.11-2.95.33l-92.96,21.14c-6.1,1.39-10.41,6.84-10.35,13.09l.44,46.32c.05,4.78-2.47,9.24-6.63,11.62-24.67,14.11-46.93,31.93-66.04,52.71-2.53,2.75-6.07,4.25-9.71,4.25-1.04,0-2.08-.12-3.11-.37l-44.94-10.79c-1.04-.25-2.08-.37-3.11-.37-5.01,0-9.72,2.84-11.97,7.52l-41.44,85.85c-2.72,5.63-1.14,12.4,3.78,16.25l36.48,28.53c3.77,2.95,5.68,7.7,4.95,12.43-2.14,13.8-3.26,27.93-3.26,42.32s1.12,28.53,3.26,42.32c.73,4.73-1.18,9.48-4.95,12.43l-36.48,28.53c-4.93,3.85-6.5,10.62-3.78,16.25l41.44,85.85c2.26,4.67,6.96,7.52,11.97,7.52,1.03,0,2.07-.12,3.11-.37l44.94-10.79c1.03-.25,2.08-.37,3.11-.37,3.65,0,7.19,1.5,9.71,4.25,19.1,20.78,41.37,38.6,66.04,52.71,4.15,2.38,6.67,6.83,6.63,11.62l-.44,46.32c-.06,6.25,4.25,11.7,10.35,13.09l92.96,21.14c.99.22,1.98.33,2.95.33,5.07,0,9.82-2.91,12.04-7.66l19.58-41.85c2.03-4.35,6.25-7.28,11.04-7.61,28.97-1.99,56.71-8.47,82.52-18.76,1.57-.63,3.22-.93,4.86-.93,3,0,5.97,1.03,8.38,2.98l35.85,29.16c2.44,1.99,5.42,2.98,8.39,2.98s5.87-.97,8.3-2.91l74.49-59.49c4.89-3.9,6.39-10.68,3.62-16.29l-20.48-41.36c-2.13-4.3-1.79-9.43.94-13.38,15.94-23.08,28.43-48.73,36.74-76.19,1.39-4.59,5.18-8.04,9.86-9.06l45.1-9.8c6.11-1.33,10.47-6.74,10.47-12.99v-95.33c0-6.25-4.36-11.66-10.47-12.99l-45.1-9.8c-4.68-1.02-8.48-4.47-9.86-9.06-8.3-27.47-20.8-53.11-36.74-76.19-2.73-3.95-3.07-9.08-.94-13.38l20.48-41.36c2.78-5.6,1.27-12.39-3.62-16.29l-74.49-59.49c-2.43-1.94-5.36-2.91-8.3-2.91s-5.95.99-8.39,2.98l-35.85,29.16c-2.41,1.96-5.38,2.98-8.38,2.98-1.64,0-3.29-.31-4.86-.93-25.81-10.29-53.54-16.78-82.52-18.76-4.79-.33-9.01-3.26-11.04-7.61l-19.58-41.85c-2.22-4.75-6.97-7.66-12.04-7.66h0Z"/>
  <path class="st0" d="M674.4,281.24c52.07,0,94.43,42.36,94.43,94.43s-42.36,94.43-94.43,94.43-94.43-42.36-94.43-94.43,42.36-94.43,94.43-94.43M674.4,261.24c-63.2,0-114.43,51.23-114.43,114.43s51.23,114.43,114.43,114.43,114.43-51.23,114.43-114.43-51.23-114.43-114.43-114.43h0Z"/>
</svg>