<?xml version="1.0" encoding="UTF-8"?>
<svg xmlns="http://www.w3.org/2000/svg" version="1.1" viewBox="0 0 1366 768">
  <!-- Generator: Adobe Illustrator 29.1.0, SVG Export Plug-In . SVG Version: 2.1.0 Build 142)  -->
  <defs>
    <style>
      .st0 {
        fill: #fff;
      }

      .st1 {
        stroke: #dd2a6f;
      }

      .st1, .st2 {
        fill: none;
        stroke-miterlimit: 10;
      }

      .st2 {
        stroke: #b2cad8;
        stroke-width: 24px;
      }

      .st3 {
        display: none;
      }
    </style>
  </defs>
  <g id="background" class="st3">
    <g>
      <path class="st0" d="M1204,76v473H304V76h900ZM797.01,423.98c1.17.13,2.21.57,2.99,1.48,22.11,25.5,9.62,77.49,13.06,108.98,4.51,12.63,14.55,8.55,24.19,5.3,77.21-25.99,139.3-105.25,150.63-185.37,28.48-201.35-189.24-345.5-361.4-235.4-132.52,84.75-146.09,273.15-28.49,377.53,17.18,15.25,58.55,42,80.74,46.25,3.89.74,9.42.6,12.63-1.9,9.17-7.16,1.23-42.71,3.63-53.86-10.99,2.82-24.17,3.31-35.48,1.99-49.9-5.82-36.26-35.94-65.03-60.97-2.12-1.84-19.4-12.22-12.82-16.11,11.41-4.42,24.84,1.9,33.82,9.11,10.92,8.76,14.95,22.29,26.05,30.95,15.86,12.38,36.55,9.41,54.24,2.79,1.76-9.22,3.66-16.77,8.8-24.7,1.19-1.84,4.7-4.73,5.42-6.58.71-1.82-.52-1.31-1.49-1.46-27.72-4.24-53.61-9.03-75.02-29-27.46-25.6-36.43-81.23-25.97-116.02,3.94-13.09,11.17-23.91,19.52-34.56-7.09-21.01-5.26-41.55,2.21-62.21,5.32-6.31,37.36,7.58,44.12,10.9,7.49,3.68,14.22,8.42,21.35,12.68,38.96-10,78.97-10.62,117.85.08,11.43-7.31,52.22-30.45,64.45-24.41,9.81,18.72,10.92,43.2,3.32,63.04,7.21,8,13.82,17.77,17.84,27.8,12.28,30.61,6.33,80.95-11.77,108.59-18.21,27.81-56.86,41.44-88.91,43.09l-.5,1.99Z"/>
      <path d="M797.01,423.98l.5-1.99c32.05-1.65,70.69-15.28,88.91-43.09,18.11-27.64,24.05-77.98,11.77-108.59-4.02-10.03-10.63-19.79-17.84-27.8,7.6-19.84,6.49-44.31-3.32-63.04-12.24-6.04-53.03,17.1-64.45,24.41-38.88-10.7-78.89-10.07-117.85-.08-7.13-4.26-13.86-9-21.35-12.68-6.76-3.32-38.8-17.21-44.12-10.9-7.47,20.65-9.29,41.19-2.21,62.21-8.35,10.64-15.59,21.47-19.52,34.56-10.46,34.79-1.49,90.42,25.97,116.02,21.41,19.96,47.3,24.75,75.02,29,.97.15,2.21-.36,1.49,1.46-.72,1.86-4.23,4.75-5.42,6.58-5.14,7.93-7.04,15.48-8.8,24.7-17.7,6.62-38.39,9.59-54.24-2.79-11.09-8.66-15.13-22.19-26.05-30.95-8.99-7.21-22.41-13.54-33.82-9.11-6.57,3.89,10.7,14.27,12.82,16.11,28.77,25.03,15.13,55.15,65.03,60.97,11.31,1.32,24.49.83,35.48-1.99-2.4,11.16,5.54,46.7-3.63,53.86-3.21,2.51-8.74,2.65-12.63,1.9-22.2-4.25-63.56-31-80.74-46.25-117.59-104.38-104.03-292.78,28.49-377.54,172.16-110.1,389.88,34.05,361.4,235.4-11.33,80.12-73.42,159.38-150.63,185.37-9.64,3.25-19.68,7.33-24.19-5.3-3.43-31.49,9.05-83.48-13.06-108.98-.79-.91-1.82-1.35-2.99-1.48Z"/>
    </g>
    <ellipse class="st1" cx="754" cy="318" rx="236.5" ry="237.5"/>
  </g>
  <g id="Layer_2">
    <path class="st2" d="M693.28,86.9c47.69-1.3,87.33,6.4,115.22,14.16.1.03.2.01.29-.04l23.8-14.59s64.6-38.47,89.54-28.9c.09.04.17.11.21.2l6.12,14.06s.01.03.01.04l4.75,15.46s11.5,33.33-4.99,82c-.04.11-.02.23.05.33,1.8,2.42,25.21,33.96,29.6,44.59,1.78,4.31,4.69,11.92,8.23,24.63,2.57,9.24,10.48,45.19,1.3,94.04-4.99,26.59-10.15,54.08-30.96,82.39-27,36.73-63.07,51.33-81.65,58.57-29.67,11.57-56.01,13.93-72.63,14.2-.09,0-.18.04-.25.11l-.78.78s-1.75,1.71-.87,2.63,3.72-.45,8.07,6.01c0,0,15.25,21.31,16.9,39.62,1.65,18.31,5.19,22.36,4.31,59.38s-1.93,65.6-1.85,73.53c.08,6.98,1.5,30.64-1.7,35.38-4.66,6.9-13.01,9.97-13.38,10.1-.01,0-.01,0-.02,0-.49.12-16.91,3.94-34.52,5.87-18.6,2.04-38.2,3.25-38.46,3.26,0,0,0,0-.01,0l-18.43.14-19.4.15s-.02,0-.03,0l-21.27-1.77s-.02,0-.02,0l-22.27-3.37-26.65-5.31c-5.51-1.1-10.04-5.19-11.37-10.65-.02-.06-.03-.13-.05-.19-1.49-6.37-.73-16.01.39-26.86,2.27-21.95-1.99-55.62-1.99-55.62,0,0-1.14-12.31.38-16.84.09-.26-.14-.52-.42-.46-1.8.35-4.26.8-7.18,1.27-13.6,2.19-34.69,5.59-59.52,1.78-11.1-1.7-24.42-3.88-39.05-12.42-4.88-2.85-13.53-8.01-21.3-17.75-3.96-4.96-6.19-9.22-10.65-17.75-4.99-9.53-6.24-13.97-12.42-24.85-2.32-4.08-4.24-7.14-5.32-8.87-5.45-8.68-8.18-13.02-12.42-17.75-2.92-3.25-7.29-8.05-14.2-12.42-3.53-2.23-4.65-2.41-8.87-5.32-1.25-.86-6.45-4.51-10.65-10.65-1.46-2.14-2.25-3.76-1.77-5.32.46-1.52,1.98-2.52,3.55-3.55,0,0,1.76-1.16,3.55-1.77,7.84-2.7,19.52,0,19.52,0,4.13,1.03,12.7,3.29,23.07,8.87,5.32,2.86,11.4,6.19,17.75,12.42,2.89,2.83,4.88,5.44,8.87,10.65,4.91,6.41,5.7,8.22,12.42,17.75,5.23,7.41,7.85,11.12,10.65,14.2,2.67,2.94,7.25,7.9,14.2,12.42,8.54,5.56,16.28,7.6,21.3,8.87,14.81,3.76,26.88,2.65,35.5,1.77,8.7-.88,21.13-3.05,35.29-8.79.13-.05.21-.16.23-.3.35-3.15.99-7.57,2.23-12.76,2.92-12.22,6.37-18.24,10.17-26.07,2.63-5.42,6.1-8.6,10.65-14.2.8-.98,1.16-1.56,1.37-2.09.24-.59.33-1.06.4-1.46.18-.99.28-1.5,0-1.77-.27-.26-.67-.08-1.76,0-.01,0-.02,0-.03,0-.06,0-.35,0-1.76,0-15.27,0-35.5-5.32-35.5-5.32-23.76-6.25-35.64-9.38-39.05-10.65-11.88-4.43-27.68-10.33-44.37-23.07-17.74-13.55-27.57-28.04-33.72-37.27-18.63-27.96-24.64-54-28.4-71-4.47-20.2-10.68-49.69-3.55-86.97,7.12-37.24,23.76-62.47,28.4-69.22,4.63-6.73,9-12.05,12.29-15.82.09-.1.11-.23.07-.35-1.03-2.94-2.52-7.5-3.92-13.17-1.69-6.88-9.22-39.69,2.21-80.71,1.08-3.88,2.76-9.35,5.26-15.8.04-.11.13-.19.24-.22,3.7-1.08,9.29-2.27,16.03-1.89,7.34.42,20.64,5.23,23.73,6.37,25.36,9.4,16.18,5.4,29.29,11.54,11.77,5.51,27.11,13.47,44.35,24.84.01,0,.03.02.04.02l2.84,1.36c.07.04.16.05.24.03,2.92-.65,57.74-12.81,94.53-13.82Z"/>
  </g>
</svg>