<?xml version="1.0" encoding="UTF-8"?>
<svg xmlns="http://www.w3.org/2000/svg" version="1.1" viewBox="0 0 1366 768">
  <!-- Generator: Adobe Illustrator 29.1.0, SVG Export Plug-In . SVG Version: 2.1.0 Build 142)  -->
  <defs>
    <style>
      .st0 {
        fill: #3a3e56;
      }

      .st1 {
        fill: #b2cad8;
      }

      .st2 {
        fill: none;
        stroke: #b2cad8;
        stroke-miterlimit: 10;
        stroke-width: 24px;
      }

      .st3 {
        display: none;
      }
    </style>
  </defs>
  <g id="Layer_3" class="st3">
    <g id="Layer_5">
      <rect class="st0" x="-7" y="-6" width="1399" height="791"/>
    </g>
  </g>
  <g id="Layer_4">
    <path class="st2" d="M869.07,305.91c-.51-7.85-2.3-29.68-18.48-50.74-11.73-15.26-25.53-22.46-28.64-24.02l-.08-.04c-2.41-1.21-2.78-4.46-.74-6.24,12.1-10.59,19.76-26.2,19.76-43.62,0-31.89-25.65-57.75-57.29-57.75s-57.29,25.86-57.29,57.75c0,17.36,7.61,32.92,19.64,43.51,2,1.76,1.5,4.98-.89,6.15-3.4,1.67-6.74,3.59-9.97,5.78-13.8,9.35-22.49,21.28-27.96,32.11-5.97,11.82-8.96,23.93-9.13,37.17l-.05,3.92c-.05,3.92,3.11,7.12,7.03,7.12h157.24c3.97,0,7.13-3.28,7.03-7.24-.03-1.21-.09-2.49-.17-3.85Z"/>
  </g>
  <g id="Layer_1">
    <path class="st1" d="M896.49,81c14.07,0,25.51,11.44,25.51,25.51v517.98c0,14.07-11.44,25.51-25.51,25.51h-397.98c-14.07,0-25.51-11.44-25.51-25.51V106.51c0-14.07,11.44-25.51,25.51-25.51h397.98M896.49,57h-397.98c-27.34,0-49.51,22.17-49.51,49.51v517.98c0,27.34,22.17,49.51,49.51,49.51h397.98c27.34,0,49.51-22.17,49.51-49.51V106.51c0-27.34-22.17-49.51-49.51-49.51h0Z"/>
  </g>
  <g id="Layer_2">
    <rect class="st1" x="518.02" y="150" width="142.87" height="16" rx="8" ry="8"/>
    <rect class="st1" x="518" y="220" width="142.87" height="16" rx="8" ry="8"/>
    <rect class="st1" x="518.13" y="289.63" width="142.87" height="16" rx="8" ry="8"/>
    <rect class="st1" x="518.2" y="359.63" width="355.49" height="16" rx="8" ry="8"/>
    <rect class="st1" x="518.16" y="429.63" width="355.49" height="16" rx="8" ry="8"/>
    <rect class="st1" x="518.51" y="499.53" width="355.49" height="16" rx="8" ry="8"/>
    <rect class="st1" x="518.47" y="569.53" width="355.49" height="16" rx="8" ry="8"/>
  </g>
</svg>